<svg width="234" height="229" viewBox="0 0 234 229" fill="none" xmlns="http://www.w3.org/2000/svg">
<circle cx="43" cy="38" r="30" fill="#27EA81"/>
<circle cx="36.5" cy="32.5" r="30" stroke="black" stroke-width="5"/>
<path d="M174 18C174 15.2386 176.239 13 179 13H229C231.761 13 234 15.2386 234 18V68C234 70.7614 231.761 73 229 73H179C176.239 73 174 70.7614 174 68V18Z" fill="#FFEE57"/>
<path d="M168.5 9C168.5 7.61929 169.619 6.5 171 6.5H221C222.381 6.5 223.5 7.61929 223.5 9V59C223.5 60.3807 222.381 61.5 221 61.5H171C169.619 61.5 168.5 60.3807 168.5 59V9Z" stroke="black" stroke-width="5"/>
<path d="M174 165C174 162.239 176.239 160 179 160H229C231.761 160 234 162.239 234 165V215C234 217.761 231.761 220 229 220H179C176.239 220 174 217.761 174 215V165Z" fill="#817FF2"/>
<path d="M168.5 156C168.5 154.619 169.619 153.5 171 153.5H221C222.381 153.5 223.5 154.619 223.5 156V206C223.5 207.381 222.381 208.5 221 208.5H171C169.619 208.5 168.5 207.381 168.5 206V156Z" stroke="black" stroke-width="5"/>
<path d="M147.061 33.0607C147.646 32.4749 147.646 31.5251 147.061 30.9393L137.515 21.3934C136.929 20.8076 135.979 20.8076 135.393 21.3934C134.808 21.9792 134.808 22.9289 135.393 23.5147L143.879 32L135.393 40.4853C134.808 41.0711 134.808 42.0208 135.393 42.6066C135.979 43.1924 136.929 43.1924 137.515 42.6066L147.061 33.0607ZM92 33.5H146V30.5H92V33.5Z" fill="black"/>
<path d="M90.9393 181.939C90.3535 182.525 90.3535 183.475 90.9393 184.061L100.485 193.607C101.071 194.192 102.021 194.192 102.607 193.607C103.192 193.021 103.192 192.071 102.607 191.485L94.1213 183L102.607 174.515C103.192 173.929 103.192 172.979 102.607 172.393C102.021 171.808 101.071 171.808 100.485 172.393L90.9393 181.939ZM146 181.5H92V184.5H146V181.5Z" fill="black"/>
<path d="M195.939 136.061C196.525 136.646 197.475 136.646 198.061 136.061L207.607 126.515C208.192 125.929 208.192 124.979 207.607 124.393C207.021 123.808 206.071 123.808 205.485 124.393L197 132.879L188.515 124.393C187.929 123.808 186.979 123.808 186.393 124.393C185.808 124.979 185.808 125.929 186.393 126.515L195.939 136.061ZM195.5 82L195.5 135L198.5 135L198.5 82L195.5 82Z" fill="black"/>
<path d="M41.2692 148.692L50.2843 176.438H79.4578L55.856 193.586L64.8711 221.331L41.2692 204.184L17.6674 221.331L26.6825 193.586L3.08066 176.438H32.2541L41.2692 148.692Z" fill="#F54FB3"/>
<path d="M40.1538 150.09L46.7913 170.518L47.3526 172.246H49.1689H70.6482L53.2711 184.871L51.8017 185.938L52.3629 187.666L59.0004 208.094L41.6233 195.469L40.1538 194.401L38.6844 195.469L21.3073 208.094L27.9447 187.666L28.506 185.938L27.0366 184.871L9.65948 172.246H31.1387H32.9551L33.5164 170.518L40.1538 150.09Z" stroke="black" stroke-width="5"/>
</svg>
