<?xml version="1.0" standalone="no"?>
<!DOCTYPE svg PUBLIC "-//W3C//DTD SVG 20010904//EN"
 "http://www.w3.org/TR/2001/REC-SVG-20010904/DTD/svg10.dtd">
<svg version="1.0" xmlns="http://www.w3.org/2000/svg"
 width="2600.000000pt" height="2600.000000pt" viewBox="0 0 2600.000000 2600.000000"
 preserveAspectRatio="xMidYMid meet">
<metadata>
Created by potrace 1.14, written by Peter Selinger 2001-2017
</metadata>
<g transform="translate(0.000000,2600.000000) scale(0.100000,-0.100000)"
fill="#000000" stroke="none">
<path d="M5445 21861 c-6 -5 -37 -12 -70 -15 -167 -17 -321 -53 -430 -101
-154 -67 -233 -113 -307 -177 -14 -13 -51 -43 -82 -68 -30 -25 -55 -50 -56
-55 0 -6 -9 -17 -20 -25 -11 -8 -20 -19 -20 -25 0 -6 -9 -17 -20 -25 -11 -8
-20 -20 -20 -26 0 -7 -3 -14 -7 -16 -22 -9 -183 -268 -168 -268 4 0 -2 -12
-12 -27 -56 -85 -163 -392 -149 -428 2 -7 2 -16 -2 -20 -4 -3 -7 -35 -8 -71
-1 -64 0 -64 30 -72 48 -13 65 -4 72 37 9 54 43 180 61 231 20 56 170 365 213
440 120 207 294 358 530 459 30 13 59 24 65 26 5 1 22 7 36 13 27 11 98 31
134 38 53 10 66 13 74 18 8 5 50 10 176 21 28 3 86 10 130 16 72 9 247 5 268
-8 4 -2 148 -7 320 -9 171 -3 337 -6 367 -8 134 -9 247 -8 271 2 15 6 36 24
48 40 34 48 15 57 -131 67 -67 4 -148 9 -178 11 -30 3 -138 6 -240 9 -112 2
-186 8 -188 14 -4 13 -674 15 -687 2z"/>
<path d="M9140 21448 c-347 -19 -1023 -30 -2695 -42 -302 -2 -562 -7 -576 -10
-14 -3 -79 -8 -145 -10 -65 -3 -157 -13 -204 -22 -47 -9 -93 -17 -102 -18 -10
0 -18 -4 -18 -8 0 -4 -7 -5 -15 -2 -8 4 -22 1 -30 -6 -8 -7 -15 -10 -15 -7 0
8 -119 -37 -183 -70 -51 -25 -193 -115 -239 -150 -61 -47 -197 -194 -216 -234
-22 -46 -30 -119 -12 -119 20 0 60 24 60 37 0 7 4 13 9 13 4 0 23 14 41 32 45
42 140 120 140 113 0 -5 41 29 79 65 16 15 50 39 100 72 34 23 100 53 186 87
39 15 79 32 90 36 11 4 25 9 30 10 6 2 28 7 50 13 71 19 144 26 355 37 74 4
140 10 145 13 6 4 456 8 1000 9 545 1 1053 4 1130 7 77 2 266 7 420 10 154 3
397 9 540 12 229 6 493 6 1172 0 172 -1 184 0 203 20 27 27 34 68 15 87 -8 8
-36 18 -62 22 -70 9 -1095 12 -1253 3z"/>
<path d="M18556 21388 c-24 -37 -27 -75 -7 -100 l18 -22 649 -2 c357 -2 672
-6 699 -9 28 -4 114 -7 193 -8 78 -1 142 -4 142 -7 0 -3 28 -4 62 -4 35 1 88
-2 118 -7 30 -5 75 -12 100 -15 74 -10 83 -11 135 -24 28 -6 58 -13 67 -15 33
-7 172 -47 197 -57 46 -18 65 -26 109 -42 96 -36 213 -129 249 -199 18 -35 26
-97 26 -194 1 -84 4 -87 98 -74 7 1 30 48 36 71 5 22 5 151 -1 176 -9 44 -66
141 -108 185 -58 62 -144 117 -258 166 -92 40 -225 81 -284 89 -16 2 -52 10
-80 18 -28 8 -68 16 -89 18 -21 1 -41 6 -43 10 -3 5 -9 6 -14 3 -5 -3 -40 1
-77 10 -37 8 -82 17 -99 19 -17 1 -36 6 -43 10 -6 4 -11 2 -11 -4 0 -6 -5 -8
-11 -4 -7 4 -93 8 -193 10 -100 1 -215 6 -256 11 -41 4 -124 8 -185 7 -60 -1
-200 -2 -310 -3 -110 -2 -293 -2 -406 -2 -113 0 -215 -1 -227 -4 -12 -2 -22 1
-22 7 0 7 -4 7 -13 -1 -8 -6 -16 -9 -18 -7 -2 2 -32 6 -66 10 -57 6 -63 5 -77
-16z"/>
<path d="M16064 20661 c-2 -3 -386 -6 -852 -8 -1740 -7 -1927 -9 -1941 -17
-11 -7 -12 -6 -6 5 8 12 6 12 -8 0 -14 -11 -17 -11 -17 0 0 11 -2 11 -10 -1
-5 -8 -10 -10 -10 -4 0 9 -202 11 -762 8 -699 -3 -803 -3 -893 -1 -16 1 -59
-2 -95 -6 -36 -3 -209 -9 -385 -12 -176 -3 -358 -8 -405 -10 -47 -2 -242 -6
-435 -9 -336 -5 -391 -7 -535 -20 -36 -3 -148 -8 -250 -11 -102 -3 -196 -7
-210 -10 -14 -3 -92 -7 -175 -10 -82 -3 -163 -8 -180 -11 -16 -3 -181 -7 -365
-10 -409 -6 -675 -11 -675 -14 0 -4 -144 -9 -465 -14 -190 -4 -392 -9 -450
-12 -58 -3 -190 -7 -295 -10 -187 -3 -231 -5 -390 -17 -44 -4 -125 -9 -180
-12 -55 -3 -111 -7 -125 -10 -14 -3 -54 -8 -89 -11 -36 -3 -68 -7 -71 -9 -4
-2 -47 -9 -96 -15 -49 -6 -114 -18 -144 -26 -30 -9 -62 -17 -70 -19 -68 -14
-189 -84 -245 -144 -32 -33 -87 -113 -95 -136 -1 -5 -16 -39 -32 -75 -49 -109
-86 -203 -92 -235 -2 -11 -11 -51 -20 -90 -15 -67 -18 -88 -32 -235 -8 -85 -8
-990 0 -1055 3 -27 9 -90 11 -140 3 -49 7 -106 9 -125 7 -71 16 -178 22 -275
3 -55 7 -116 9 -135 2 -19 6 -84 9 -144 4 -60 9 -112 11 -116 3 -5 7 -59 10
-122 3 -62 8 -149 10 -193 2 -44 6 -102 9 -130 3 -27 8 -108 11 -180 3 -71 7
-141 10 -155 3 -14 7 -88 10 -165 3 -77 7 -158 9 -180 5 -45 13 -160 21 -310
4 -55 8 -134 11 -175 2 -41 7 -232 9 -425 3 -192 7 -359 9 -370 5 -24 14 -162
21 -310 3 -60 7 -135 10 -165 2 -30 7 -106 10 -169 3 -63 8 -118 11 -123 5 -7
10 -107 19 -348 2 -58 6 -166 9 -240 3 -74 6 -216 7 -315 1 -99 6 -216 10
-260 8 -77 14 -152 24 -335 3 -47 7 -95 9 -108 3 -12 6 -73 7 -135 1 -61 6
-148 11 -192 4 -44 10 -156 12 -250 3 -93 8 -213 12 -265 17 -220 9 -516 -15
-608 -13 -45 -88 -161 -164 -252 -6 -8 -42 -57 -79 -110 -38 -52 -74 -104 -82
-115 -8 -11 -42 -58 -75 -105 -33 -47 -64 -90 -69 -95 -5 -6 -17 -24 -27 -40
-11 -17 -31 -44 -45 -61 -14 -17 -32 -41 -40 -54 -12 -18 -63 -85 -118 -155
-4 -5 -29 -38 -55 -72 -26 -34 -53 -68 -60 -75 -6 -7 -30 -36 -52 -63 -21 -28
-42 -52 -46 -55 -3 -3 -23 -27 -43 -55 -21 -27 -50 -63 -65 -80 -14 -16 -42
-50 -61 -75 -19 -25 -37 -47 -40 -50 -3 -3 -21 -25 -40 -50 -19 -25 -41 -52
-49 -61 -18 -19 -19 -20 -121 -149 -68 -86 -117 -144 -161 -189 -21 -21 -157
-185 -234 -281 -32 -41 -69 -85 -82 -96 -13 -12 -23 -26 -23 -32 0 -6 -3 -12
-8 -14 -4 -1 -41 -46 -82 -98 -41 -52 -77 -97 -80 -100 -3 -3 -44 -52 -90
-109 -47 -57 -101 -123 -120 -147 -63 -77 -252 -295 -354 -408 -39 -43 -73
-83 -75 -89 -2 -7 -9 -17 -16 -23 -6 -6 -27 -31 -46 -54 -81 -100 -153 -187
-180 -218 -16 -19 -29 -38 -29 -42 0 -5 -3 -10 -8 -12 -4 -1 -32 -34 -62 -73
-29 -38 -61 -77 -69 -87 -9 -9 -27 -31 -41 -49 -14 -18 -30 -38 -36 -44 -6 -6
-33 -38 -59 -70 -27 -33 -61 -72 -77 -86 -15 -14 -28 -31 -28 -37 0 -5 -3 -12
-8 -14 -4 -1 -32 -32 -62 -67 -30 -36 -62 -72 -70 -82 -8 -9 -25 -29 -37 -45
-12 -16 -36 -44 -53 -63 -42 -45 -140 -168 -140 -176 0 -3 -11 -22 -23 -43
-59 -94 -83 -220 -81 -432 3 -240 28 -394 86 -525 51 -115 199 -275 302 -325
78 -39 117 -46 276 -55 171 -9 583 -17 670 -14 141 5 1184 2 1520 -5 173 -4
863 -7 1533 -8 669 -1 1217 -4 1217 -7 0 -3 26 -6 58 -7 744 -11 1014 -15
1142 -20 85 -3 286 -7 445 -9 160 -2 310 -5 335 -5 25 -1 50 -1 55 0 6 1 14 2
18 1 5 -1 134 -3 288 -6 153 -2 282 -6 287 -9 5 -3 123 -8 263 -12 140 -3 274
-8 299 -10 115 -8 585 -15 1230 -19 388 -2 955 -7 1260 -11 305 -4 864 -8
1242 -8 379 -1 688 -5 688 -9 0 -5 6 -5 13 0 14 9 67 12 67 3 0 -3 312 -6 693
-8 380 -1 771 -5 867 -7 234 -7 1880 -6 2000 0 52 3 138 8 190 11 52 3 214 7
360 10 146 2 326 6 400 8 146 5 886 19 1037 20 51 1 93 3 93 6 0 6 -18 5 499
14 211 3 458 9 550 13 323 13 816 7 840 -11 10 -8 13 -8 8 0 -4 7 17 9 66 8
40 -2 403 -5 807 -8 779 -5 738 -6 960 38 14 3 57 21 95 41 55 28 79 48 110
91 51 70 92 173 100 250 3 33 8 71 11 84 3 14 7 113 9 220 3 181 2 202 -21
290 -20 78 -22 100 -13 128 6 18 17 36 24 38 12 5 17 16 32 74 22 81 -28 232
-149 449 -32 58 -58 106 -58 108 0 2 -17 27 -38 56 -22 29 -41 57 -43 63 -2 6
-20 30 -39 54 -19 23 -60 72 -90 109 -30 37 -64 79 -75 95 -18 25 -29 38 -84
101 -9 11 -39 49 -66 85 -28 36 -64 80 -82 97 -18 18 -30 33 -28 33 2 0 -7 12
-21 27 -13 14 -35 39 -47 55 -32 42 -45 57 -115 135 -34 39 -72 84 -84 99 -21
28 -68 79 -168 183 -25 26 -67 72 -93 102 -27 30 -266 272 -530 539 -265 267
-504 512 -532 545 -27 32 -113 122 -190 200 -234 237 -469 479 -495 512 -14
17 -54 62 -90 100 -36 39 -77 85 -92 103 -15 18 -56 63 -90 99 -35 36 -92 100
-128 141 -151 173 -459 483 -587 591 -119 100 -119 98 -116 434 1 149 7 311
13 360 5 50 13 155 16 235 3 80 7 163 9 185 5 69 16 274 21 420 3 77 7 167 10
200 2 33 6 130 8 215 3 85 7 175 10 200 3 25 10 128 16 230 6 102 12 201 14
220 2 19 7 82 10 139 3 57 8 107 11 110 2 4 7 59 10 122 6 104 10 164 20 274
3 22 7 82 10 133 3 52 7 97 9 100 2 4 7 57 11 119 4 61 8 124 10 140 2 15 6
69 10 118 10 154 16 219 21 241 3 12 7 75 9 140 2 66 6 139 9 164 2 25 9 124
16 220 6 96 13 191 15 210 2 19 7 71 10 114 3 44 8 82 10 86 2 3 7 53 10 111
4 57 8 120 11 139 2 19 6 64 9 100 12 166 17 215 21 222 2 3 7 64 10 135 3 70
7 144 9 163 2 19 6 80 9 135 4 55 9 120 12 145 7 60 13 151 19 284 2 60 7 124
9 141 3 17 8 69 11 116 6 86 13 159 20 239 3 25 7 90 10 145 2 55 8 132 14
170 5 39 10 99 11 135 1 36 3 81 5 100 3 33 8 102 21 284 3 44 7 83 9 87 3 3
7 53 10 110 3 57 8 122 10 144 2 22 7 72 10 110 3 39 8 88 11 110 15 142 19
228 19 455 l0 255 -37 76 c-46 94 -111 156 -214 205 -69 32 -191 66 -282 78
-24 3 -49 9 -55 13 -7 4 -860 8 -1897 8 -1037 0 -1890 4 -1897 8 -6 4 -14 3
-18 -3 -4 -6 -11 -8 -16 -4 -9 5 -142 7 -389 4 -41 0 -90 1 -108 3 -18 2 -35
1 -38 -2z m1208 -1014 c6 -9 8 -9 8 1 0 6 5 12 11 12 5 0 8 -3 5 -8 -2 -4 15
-6 39 -5 24 1 47 -2 50 -8 5 -7 11 -6 21 2 11 9 14 8 14 -2 0 -11 2 -11 10 1
9 13 11 13 20 0 7 -11 10 -11 10 -2 0 8 5 10 13 5 18 -11 36 -12 43 -2 3 5 11
6 17 2 18 -11 38 -12 31 -2 -9 15 8 10 28 -8 15 -13 19 -14 16 -3 -3 16 39 23
48 9 3 -5 14 -4 25 1 14 8 19 7 19 -2 0 -9 3 -9 10 2 9 13 10 13 10 0 0 -9 3
-11 8 -5 10 14 52 14 52 1 0 -6 5 -4 10 4 9 13 11 13 20 0 6 -10 10 -11 10 -3
0 9 7 10 23 5 19 -7 42 -8 50 -2 8 6 77 5 77 -3 0 -4 5 -5 11 -2 15 10 110 12
115 3 3 -5 14 -4 24 2 13 7 21 7 25 0 4 -6 12 -7 18 -3 21 13 47 13 47 0 0 -7
3 -8 8 -2 10 14 65 15 74 1 4 -6 8 -6 8 -1 0 6 92 9 262 7 293 -3 679 -4 1018
-4 298 1 350 -2 359 -16 7 -12 7 -26 -3 -227 -3 -60 -8 -297 -11 -525 -3 -228
-8 -435 -10 -460 -6 -74 -15 -226 -20 -368 -3 -74 -7 -137 -9 -140 -2 -4 -8
-75 -11 -157 -4 -83 -9 -170 -11 -195 -2 -25 -6 -85 -9 -135 -9 -163 -16 -255
-21 -277 -2 -13 -6 -95 -9 -183 -2 -88 -5 -162 -6 -165 -2 -6 -3 -16 -13 -205
-8 -153 -15 -269 -21 -355 -3 -30 -7 -107 -10 -170 -2 -63 -7 -131 -10 -150
-2 -19 -7 -75 -10 -125 -3 -49 -8 -106 -11 -124 -2 -19 -7 -73 -9 -120 -7
-120 -15 -221 -20 -251 -2 -14 -7 -74 -10 -135 -4 -60 -8 -126 -10 -145 -4
-35 -9 -95 -21 -265 -3 -49 -7 -92 -9 -95 -2 -3 -6 -61 -10 -130 -3 -69 -8
-143 -10 -165 -2 -22 -6 -85 -10 -140 -3 -55 -8 -122 -10 -150 -3 -27 -8 -72
-11 -100 -2 -27 -7 -90 -9 -140 -3 -49 -7 -103 -9 -120 -3 -16 -7 -70 -11
-120 -4 -49 -8 -101 -11 -115 -2 -14 -6 -65 -10 -115 -3 -49 -8 -99 -10 -110
-6 -30 -27 -209 -39 -335 -3 -30 -10 -80 -16 -110 -5 -31 -11 -78 -14 -105 -2
-28 -7 -68 -9 -90 -20 -157 -35 -305 -41 -410 -4 -69 -9 -119 -25 -225 -7 -41
-14 -91 -16 -110 -3 -19 -11 -71 -19 -115 -7 -44 -13 -87 -13 -95 0 -16 -8
-88 -17 -160 -3 -25 -6 -76 -7 -115 -1 -88 -8 -99 -55 -80 -47 20 -127 27
-293 25 -74 -1 -304 -3 -510 -4 -206 -2 -388 -6 -405 -9 -16 -3 -70 -9 -120
-13 -49 -3 -99 -8 -110 -11 -91 -19 -573 -19 -660 0 -11 3 -65 8 -120 12 -97
6 -123 9 -175 20 -14 3 -41 8 -60 11 -19 3 -38 8 -41 10 -6 3 -161 16 -199 17
-8 0 -19 3 -25 7 -5 4 -104 8 -220 9 -115 1 -247 6 -293 12 -46 5 -116 7 -155
3 -94 -9 -289 -11 -1462 -14 -552 -2 -985 -7 -992 -12 -7 -5 -14 -5 -18 2 -5
8 -11 8 -21 -1 -8 -6 -14 -8 -14 -3 0 10 -969 10 -1035 1 -51 -8 -450 -10
-490 -3 -16 3 -133 8 -260 11 -281 8 -440 13 -440 14 0 14 -819 21 -963 9
-203 -17 -524 -21 -626 -7 -56 7 -105 12 -111 10 -24 -8 -1042 4 -1145 13 -75
7 -720 15 -1211 16 l-336 0 -28 26 c-26 24 -34 25 -104 22 -55 -2 -76 0 -77
10 -1 6 -3 13 -4 15 -1 1 -4 99 -5 217 -2 118 -6 229 -9 245 -2 17 -7 62 -11
100 -3 39 -8 90 -11 115 -10 78 -13 112 -19 224 -3 60 -8 112 -10 116 -2 3 -7
47 -10 96 -8 109 -13 169 -15 169 -3 0 -9 86 -14 203 -3 68 -8 127 -11 132 -3
4 -7 60 -10 123 -3 64 -8 135 -10 159 -20 177 -37 541 -41 868 -3 305 -6 414
-18 605 -3 50 -8 144 -12 210 -3 66 -8 140 -10 165 -3 25 -6 90 -8 145 -2 55
-9 152 -15 215 -6 63 -13 189 -16 280 -2 91 -7 192 -10 225 -2 33 -6 180 -9
327 -2 147 -7 271 -10 276 -3 5 -8 78 -11 163 -4 85 -9 177 -11 204 -3 48 -7
122 -19 414 -3 74 -8 138 -10 142 -3 4 -7 72 -10 150 -3 79 -8 162 -10 184 -2
22 -7 96 -10 165 -3 69 -10 161 -16 205 -5 44 -12 104 -14 133 -3 29 -9 83
-14 120 -5 37 -10 106 -10 153 -2 86 -7 165 -16 249 -3 25 -7 78 -10 119 -3
40 -7 77 -10 81 -2 4 -7 41 -11 82 l-6 75 53 8 c30 4 133 9 229 11 96 2 211 6
255 9 93 6 363 13 800 20 171 3 324 7 340 10 17 3 138 8 270 10 132 3 274 7
315 10 119 6 369 13 725 21 339 7 420 10 420 13 0 1 189 4 420 7 231 2 443 6
470 9 28 3 237 8 465 10 390 5 553 10 695 21 33 2 329 7 659 10 329 3 604 8
612 11 8 3 20 3 28 0 8 -3 17 -3 20 1 11 10 86 9 86 -2 0 -7 3 -8 8 -1 4 6 59
11 127 13 281 5 445 10 472 16 15 3 120 8 233 11 113 4 219 8 235 11 17 2 118
7 225 10 107 3 220 6 250 8 30 2 136 6 235 10 188 6 382 16 450 21 182 16 835
25 853 12 7 -6 12 -6 12 0 0 13 173 11 182 -2 5 -6 8 -6 8 1 0 12 38 13 55 2
6 -4 17 -3 25 2 9 5 20 4 29 -3 11 -9 13 -9 8 0 -6 10 37 12 78 3 6 -1 12 -1
15 0 3 1 43 4 90 7 47 2 86 6 87 7 2 1 145 3 320 4 239 1 319 -2 325 -11z"/>
<path d="M15509 19476 c-5 -5 -115 -17 -201 -21 -36 -2 -88 -6 -115 -9 -26 -3
-154 -8 -283 -12 -129 -3 -248 -8 -265 -11 -37 -6 -1457 -12 -1468 -5 -14 7
-140 11 -652 17 -456 6 -658 7 -862 6 -97 -1 -113 -12 -113 -76 0 -76 -15 -73
387 -73 197 -1 358 -1 358 -2 0 -1 213 -9 400 -14 224 -7 1757 -8 1805 -2 98
13 188 17 437 20 150 2 276 6 280 9 4 3 37 8 73 11 36 4 77 9 90 11 14 3 43 8
65 11 77 10 135 43 165 96 15 25 -14 48 -59 48 -21 0 -40 -2 -42 -4z"/>
<path d="M7077 19293 c-1 -1 -45 -4 -97 -7 -52 -3 -113 -8 -135 -10 -22 -3
-80 -10 -130 -16 -151 -18 -168 -20 -237 -31 -62 -10 -67 -13 -73 -39 -8 -36
2 -102 16 -111 17 -10 63 -3 259 36 14 3 41 8 60 10 19 3 49 7 65 10 146 22
483 36 897 35 126 0 147 8 142 52 -1 12 -3 28 -3 35 -1 11 -20 20 -61 31 -15
3 -700 9 -703 5z"/>
<path d="M11950 19108 c0 -4 -6 -8 -13 -8 -13 0 -37 -53 -37 -83 0 -30 11 -31
280 -42 97 -4 147 -10 152 -18 4 -7 8 -7 8 -2 0 6 55 10 145 10 80 0 145 -2
145 -5 0 -3 199 -7 443 -9 243 -2 546 -5 672 -7 397 -7 1393 -6 1434 1 95 16
116 86 34 110 -52 15 -88 16 -1043 20 -437 2 -829 6 -870 9 -41 3 -336 8 -655
12 -675 8 -645 7 -645 15 0 3 -11 5 -25 5 -14 0 -25 -4 -25 -8z"/>
<path d="M7210 19054 c-153 -25 -315 -126 -367 -229 -9 -16 -21 -37 -28 -45
-8 -8 -13 -17 -12 -20 1 -3 -5 -24 -15 -45 -23 -56 -30 -76 -36 -105 -6 -33
-5 -383 2 -440 19 -162 42 -213 85 -191 27 15 30 38 35 306 3 127 7 244 10
260 4 17 8 50 11 74 7 59 57 151 108 198 40 37 112 80 145 88 10 3 37 10 62
16 31 8 162 12 425 11 435 -2 448 0 453 60 2 28 -1 39 -16 47 -11 6 -138 13
-303 16 -156 3 -327 7 -379 9 -53 2 -132 -2 -180 -10z"/>
<path d="M6710 19018 c-14 -5 -47 -14 -75 -19 -27 -5 -82 -24 -120 -43 -57
-28 -81 -48 -124 -102 -98 -122 -139 -223 -111 -274 18 -34 56 -6 137 100 87
115 166 183 266 229 37 16 52 31 63 58 19 45 4 67 -36 51z"/>
<path d="M8483 17074 c-152 -46 -282 -163 -337 -304 -52 -131 -41 -189 74
-390 21 -36 49 -85 62 -110 14 -25 83 -144 153 -265 240 -411 256 -440 277
-510 46 -148 24 -354 -52 -490 -24 -43 -123 -211 -150 -255 -51 -82 -324 -562
-353 -621 -24 -47 -40 -94 -41 -120 -3 -47 19 -131 49 -189 62 -121 208 -240
327 -267 79 -18 131 -10 219 34 66 33 435 242 579 328 14 8 92 54 173 102
l148 87 -43 41 c-95 90 -162 194 -196 306 -24 76 -35 142 -25 136 49 -26 415
-244 435 -258 15 -10 29 -19 32 -19 2 0 71 -40 153 -88 513 -305 1119 -643
1188 -662 147 -41 370 94 461 278 33 68 38 86 38 152 1 93 7 80 -237 505 -66
116 -154 266 -195 335 -162 270 -182 325 -183 495 -1 80 23 187 56 257 13 26
54 99 91 162 38 63 76 128 84 143 9 15 41 71 72 123 31 52 65 111 76 130 11
19 55 96 97 170 116 202 145 266 145 322 0 97 -72 241 -162 324 -93 86 -225
140 -314 129 -64 -8 -252 -104 -518 -266 -17 -10 -38 -22 -46 -26 -8 -4 -114
-66 -235 -137 l-220 -131 66 -66 c69 -68 120 -146 157 -239 23 -58 46 -154 40
-169 -2 -5 -88 42 -193 104 -104 62 -302 179 -440 260 -303 180 -791 466 -860
504 -27 16 -84 48 -125 71 -164 94 -235 112 -327 84z m1538 -1620 c66 -66 109
-116 112 -132 5 -24 -9 -41 -107 -139 -84 -85 -118 -113 -138 -113 -19 0 -51
26 -125 98 -110 108 -127 132 -117 164 3 12 53 68 111 125 78 78 110 103 130
103 20 0 52 -26 134 -106z"/>
<path d="M14155 16530 c-11 -5 -120 -41 -242 -81 l-223 -72 -2 -404 -3 -404
-31 40 c-148 193 -468 270 -735 176 -118 -42 -269 -161 -334 -265 -98 -155
-145 -321 -150 -527 -4 -182 26 -338 95 -488 89 -198 285 -357 492 -401 70
-15 233 -15 297 0 158 37 297 125 362 231 l19 30 0 -122 c0 -110 2 -123 18
-124 22 -1 442 -1 462 0 13 1 15 137 13 1173 -2 645 -3 1190 -3 1211 0 39 -3
41 -35 27z m-706 -1104 c84 -31 159 -100 198 -183 39 -84 52 -164 48 -303 -5
-237 -71 -371 -215 -439 -48 -23 -68 -26 -160 -26 -92 0 -112 3 -160 26 -153
73 -233 246 -226 489 7 237 94 383 261 438 71 23 186 22 254 -2z"/>
<path d="M14915 16501 c-60 -21 -169 -57 -241 -81 l-132 -42 0 -1129 -1 -1128
247 0 248 -1 -1 108 c0 59 1 113 3 120 2 7 16 -5 32 -27 125 -171 354 -254
610 -217 232 32 447 209 543 446 59 146 76 251 72 450 -2 132 -7 180 -24 240
-55 190 -116 302 -219 399 -132 123 -277 181 -467 187 -218 7 -395 -70 -508
-219 l-37 -49 0 304 c-1 167 0 387 0 491 0 103 -3 187 -7 186 -4 0 -57 -17
-118 -38z m613 -1065 c92 -25 172 -89 214 -171 42 -84 58 -163 58 -288 0 -128
0 -124 -17 -197 -32 -133 -109 -236 -211 -283 -38 -18 -66 -22 -152 -22 -94 0
-111 3 -160 27 -63 31 -127 93 -163 159 -50 91 -71 253 -53 412 16 145 70 245
177 325 63 47 206 65 307 38z"/>
<path d="M16880 16304 c-52 -17 -96 -32 -97 -33 -3 -1 -10 -3 -20 -5 -5 -1
-68 -21 -141 -44 l-132 -43 0 -757 c1 -802 3 -844 49 -966 25 -68 37 -89 80
-146 118 -154 286 -221 536 -216 65 2 140 10 183 21 l72 18 0 194 0 193 -27
-6 c-16 -3 -69 -8 -118 -10 -79 -3 -97 0 -141 20 -61 28 -108 83 -124 143 -10
41 -12 161 -10 643 l0 106 210 -1 210 -1 0 186 0 187 -205 0 c-113 0 -208 2
-211 6 -3 3 -6 125 -5 271 0 146 -3 267 -7 269 -4 2 -50 -11 -102 -29z"/>
<path d="M18694 14403 c12 -22 44 -34 52 -21 4 7 3 8 -4 4 -7 -4 -12 -2 -12 5
0 7 -3 9 -7 6 -3 -4 -13 -1 -21 6 -13 9 -14 9 -8 0z"/>
<path d="M17500 14312 c0 -13 8 -18 28 -17 l27 0 3 -92 c2 -83 5 -93 21 -93
17 0 18 9 18 93 l-1 92 28 0 c20 0 30 5 32 18 2 15 -7 17 -77 17 -69 0 -79 -2
-79 -18z"/>
<path d="M17690 14220 c0 -87 3 -110 14 -110 20 0 23 16 21 90 -3 61 -2 63 11
35 7 -16 20 -52 30 -78 9 -26 22 -46 28 -44 6 2 22 36 36 77 l25 73 3 -77 c2
-56 6 -76 16 -76 20 0 23 15 21 120 0 89 -2 95 -22 98 -21 3 -28 -9 -66 -123
l-14 -39 -18 49 c-39 108 -44 115 -64 115 -20 0 -21 -6 -21 -110z"/>
<path d="M19083 12362 c-12 -16 -38 -64 -58 -108 -39 -81 -107 -204 -130 -233
-117 -144 -198 -223 -315 -302 -94 -64 -165 -96 -235 -106 -22 -3 -45 -9 -51
-14 -6 -5 -13 -6 -16 -4 -3 3 -36 -3 -74 -13 -38 -11 -77 -18 -87 -16 -26 4
-38 -35 -21 -68 16 -31 20 -31 184 -28 55 1 103 8 140 21 30 11 63 21 73 24
27 6 137 69 137 77 0 5 5 8 11 8 28 0 169 112 232 185 39 44 73 82 77 85 3 3
23 30 45 60 22 30 43 57 47 58 5 2 8 10 8 18 0 8 4 14 9 14 26 0 108 217 118
313 l6 57 -40 0 c-32 0 -43 -6 -60 -28z"/>
<path d="M11990 12309 c-36 -4 -108 -11 -160 -14 -52 -4 -98 -9 -101 -11 -4
-2 -74 -9 -155 -14 -82 -6 -162 -13 -179 -16 -16 -3 -169 -8 -340 -10 -170 -2
-346 -5 -390 -7 -261 -14 -367 -17 -610 -22 -148 -3 -292 -8 -320 -11 -76 -7
-265 -10 -265 -3 0 3 -6 6 -12 6 -38 1 -383 22 -478 28 -129 9 -158 7 -181
-12 -8 -6 -43 -26 -79 -44 -36 -18 -68 -36 -71 -42 -3 -5 -9 -8 -13 -8 -3 1
-8 0 -11 0 -3 -1 -9 -3 -15 -4 -5 -1 -16 -3 -22 -4 -7 -2 -4 -6 7 -10 11 -5
71 -9 133 -10 62 -1 118 -4 125 -6 15 -5 128 -15 217 -20 36 -1 102 -6 147 -9
105 -9 581 -10 653 -1 93 11 223 15 530 19 162 2 358 8 435 14 77 6 223 14
325 16 275 7 450 14 495 21 124 18 292 27 450 26 538 -5 602 -3 633 21 6 6 12
26 12 44 0 58 -21 64 -236 69 -104 2 -200 7 -214 10 -42 10 -241 13 -310 4z"/>
<path d="M17757 12284 c-10 -9 -151 -22 -307 -28 -120 -5 -144 -8 -250 -31
-95 -20 -172 -26 -386 -29 -105 -2 -195 -6 -201 -9 -10 -6 -100 -15 -228 -22
-44 -2 -105 -6 -135 -9 -30 -3 -136 -8 -235 -11 -99 -4 -183 -9 -188 -12 -4
-2 -71 -6 -150 -8 -78 -3 -169 -7 -202 -9 -33 -3 -134 -8 -225 -11 -153 -4
-216 -9 -280 -22 -14 -2 -194 -6 -400 -9 -206 -2 -411 -8 -455 -14 -44 -5
-235 -10 -425 -11 -516 -2 -878 -7 -940 -14 -30 -3 -86 -7 -123 -9 -63 -3 -90
-13 -93 -36 -1 -6 -3 -11 -4 -12 -7 -9 -6 -66 2 -81 9 -18 23 -19 249 -12 131
3 249 8 261 11 23 5 513 13 956 17 122 0 222 4 222 7 0 3 107 6 238 8 231 3
351 8 442 17 25 3 101 7 170 10 189 7 340 15 385 20 22 2 94 7 160 11 66 3
140 8 165 10 25 2 115 6 200 9 85 4 158 9 162 11 7 4 140 11 403 19 119 4 267
12 470 26 146 10 179 13 220 22 148 32 206 36 610 42 382 5 482 10 535 26 19
5 46 12 60 15 14 3 31 11 39 19 21 20 0 56 -46 81 -34 18 -60 19 -355 20 -175
0 -319 0 -321 -2z"/>
<path d="M19175 11951 c-17 -10 -38 -29 -47 -42 -8 -13 -32 -42 -51 -64 -20
-22 -37 -45 -37 -50 0 -6 -8 -18 -17 -26 -10 -9 -25 -26 -33 -39 -27 -42 -64
-84 -123 -140 -32 -30 -59 -62 -60 -70 -2 -8 -5 -19 -8 -25 -3 -5 -4 -16 -3
-22 1 -7 2 -17 3 -22 2 -15 84 -5 121 14 37 19 177 156 207 202 31 49 84 116
134 172 73 81 64 131 -23 131 -18 0 -47 -8 -63 -19z"/>
<path d="M21868 19892 c-22 -4 -37 -57 -44 -158 -2 -44 -9 -104 -14 -134 -9
-53 -14 -94 -25 -190 -2 -25 -7 -63 -9 -85 -3 -22 -7 -71 -11 -110 -3 -38 -8
-77 -10 -85 -2 -8 -7 -46 -10 -85 -3 -38 -7 -83 -9 -100 -3 -16 -7 -64 -11
-105 -3 -41 -8 -93 -11 -115 -7 -60 -13 -131 -19 -223 -2 -46 -7 -87 -9 -91
-3 -4 -7 -63 -11 -131 -3 -69 -8 -154 -11 -190 -6 -79 -12 -187 -18 -338 -3
-62 -8 -116 -10 -121 -3 -4 -8 -101 -11 -217 -4 -115 -8 -229 -11 -254 -5 -62
-12 -174 -19 -309 -3 -62 -7 -116 -10 -120 -4 -7 -18 -336 -16 -388 0 -12 -3
-24 -8 -28 -5 -3 -7 -14 -4 -24 3 -11 0 -66 -6 -123 -19 -169 -21 -190 -25
-263 -3 -38 -7 -95 -10 -125 -12 -123 -28 -340 -31 -410 -2 -41 -6 -146 -9
-233 -2 -87 -7 -165 -10 -175 -2 -9 -8 -89 -11 -177 -4 -88 -9 -180 -11 -205
-2 -25 -6 -99 -9 -165 -3 -66 -10 -163 -15 -215 -6 -52 -13 -140 -15 -195 -3
-55 -7 -118 -9 -140 -2 -22 -6 -96 -10 -165 -3 -69 -9 -150 -11 -180 -11 -120
-17 -198 -20 -260 -2 -36 -4 -65 -5 -65 -1 0 -4 -31 -21 -235 -11 -143 -15
-184 -24 -320 -4 -46 -8 -87 -11 -91 -2 -4 -7 -79 -9 -166 -3 -87 -8 -185 -10
-218 -3 -33 -7 -141 -10 -240 -3 -99 -8 -209 -11 -245 -22 -283 -14 -354 54
-462 26 -41 52 -80 59 -88 7 -8 34 -42 60 -75 26 -33 53 -66 60 -73 6 -7 29
-33 50 -59 21 -26 54 -63 73 -83 19 -20 71 -76 115 -125 44 -49 103 -112 130
-141 28 -28 75 -80 106 -115 106 -119 164 -183 199 -219 19 -19 62 -67 95
-105 67 -78 64 -75 195 -211 52 -55 127 -136 165 -179 76 -86 150 -166 291
-314 50 -53 113 -120 140 -150 27 -30 63 -69 79 -86 17 -17 82 -87 145 -156
187 -201 378 -389 397 -390 51 -4 82 22 77 63 -3 28 -20 49 -142 177 -41 42
-94 99 -119 126 -72 78 -242 261 -308 330 -33 34 -71 76 -85 92 -14 17 -113
122 -220 234 -107 111 -215 223 -240 249 -25 26 -62 67 -83 91 -49 56 -216
236 -282 304 -27 29 -72 76 -99 106 -27 30 -79 86 -116 124 -36 39 -74 81 -83
95 -10 14 -52 60 -95 104 -42 43 -86 91 -98 107 -11 16 -49 58 -82 95 -34 36
-62 68 -62 70 0 4 -26 36 -81 98 -78 90 -113 146 -135 216 -9 32 -7 164 4 255
5 39 10 131 12 205 1 74 4 149 6 165 6 41 12 145 18 303 3 73 8 137 11 142 3
5 8 80 11 167 3 87 7 172 8 188 5 61 18 242 21 305 2 36 7 99 10 140 3 41 8
123 10 182 2 59 6 125 9 146 2 22 7 98 11 168 6 131 14 233 21 269 2 11 6 56
8 100 3 44 9 109 15 145 6 36 13 108 16 160 3 52 7 118 10 145 2 28 7 101 9
162 3 62 7 117 10 121 3 5 8 67 11 138 3 71 8 149 11 174 9 91 12 137 14 240
1 58 6 130 11 160 5 30 11 107 14 170 3 63 7 133 9 155 7 69 16 205 22 325 3
63 7 133 9 155 3 22 7 118 9 213 3 95 7 176 10 180 3 4 7 53 11 107 6 107 13
196 20 285 3 30 7 139 9 242 2 102 6 191 10 196 3 5 8 62 11 128 4 65 8 137 9
159 2 22 6 74 10 115 3 41 8 124 11 184 3 60 8 113 11 118 3 5 7 77 9 161 2
83 8 190 14 237 5 47 13 135 16 195 3 61 8 128 10 150 7 56 13 121 19 180 2
28 7 73 10 100 3 28 8 68 11 90 2 22 6 51 9 65 2 14 7 61 11 104 3 44 8 83 10
87 14 21 12 145 -2 192 -22 75 -51 100 -105 89z"/>
<path d="M3834 18600 c-51 -20 -59 -59 -35 -171 6 -30 14 -71 16 -90 2 -19 7
-47 11 -64 4 -16 8 -403 9 -860 1 -456 5 -841 9 -855 4 -14 9 -90 12 -170 15
-359 24 -535 35 -650 6 -58 13 -134 15 -170 3 -36 6 -74 8 -85 14 -74 19 -92
31 -109 16 -22 63 -25 76 -5 11 16 4 323 -9 412 -5 33 -8 106 -8 163 1 57 -2
104 -5 104 -3 0 -6 15 -6 33 -1 17 -4 66 -8 107 -3 41 -6 523 -7 1070 0 547
-4 1022 -9 1055 -4 33 -11 83 -14 110 -10 80 -27 125 -58 156 -31 32 -32 32
-63 19z"/>
<path d="M4245 17838 c-20 -55 -25 -147 -20 -448 3 -184 7 -348 10 -365 3 -16
7 -62 10 -102 6 -100 15 -203 20 -233 2 -14 7 -110 11 -215 3 -104 8 -210 10
-235 2 -25 6 -144 9 -265 2 -121 7 -229 9 -240 6 -30 17 -152 21 -225 2 -36 6
-81 9 -100 2 -19 7 -71 11 -115 4 -44 9 -83 11 -87 3 -4 7 -71 10 -150 7 -195
13 -313 18 -378 3 -30 7 -221 11 -425 3 -203 8 -437 11 -520 3 -82 7 -197 9
-255 8 -231 14 -357 19 -400 3 -25 8 -128 12 -230 3 -102 8 -205 10 -230 2
-25 6 -121 9 -215 3 -93 8 -180 10 -192 5 -20 9 -94 20 -323 2 -47 6 -107 10
-135 3 -27 8 -66 10 -85 2 -19 9 -59 15 -89 12 -63 7 -88 -20 -96 -17 -5 -83
-72 -141 -144 -15 -17 -46 -53 -71 -79 -24 -26 -52 -59 -63 -73 -72 -95 -292
-364 -322 -395 -7 -7 -13 -17 -13 -23 0 -6 -4 -11 -9 -11 -5 0 -23 -19 -40
-42 -37 -52 -75 -98 -121 -149 -19 -21 -44 -50 -55 -65 -11 -15 -37 -46 -57
-68 -20 -23 -71 -84 -112 -136 -101 -126 -157 -191 -281 -329 -47 -53 -162
-188 -230 -270 -16 -20 -42 -50 -58 -66 -15 -17 -40 -48 -55 -70 -15 -22 -36
-49 -48 -60 -19 -18 -69 -78 -178 -210 -36 -44 -113 -132 -126 -145 -3 -3 -18
-23 -35 -45 -16 -22 -32 -42 -35 -45 -4 -3 -24 -27 -45 -55 -20 -27 -54 -69
-74 -92 -150 -172 -232 -304 -215 -348 15 -38 115 29 179 119 11 16 27 36 36
45 9 9 67 81 128 161 61 80 117 152 124 160 6 9 30 38 52 65 22 28 45 56 52
63 7 7 29 34 50 60 21 26 52 63 70 82 46 51 71 81 101 119 26 32 56 68 121
141 17 19 31 38 31 41 0 7 15 25 98 118 31 35 64 73 72 84 8 10 28 31 44 46
16 14 65 71 109 126 43 55 98 120 121 145 23 25 68 77 100 115 32 39 73 86 92
105 26 27 168 199 212 255 4 6 43 53 85 105 43 52 92 113 110 135 18 21 46 55
62 75 17 19 43 53 58 75 15 23 45 59 67 82 22 23 40 44 40 46 0 4 72 84 140
157 34 36 137 117 193 153 30 19 34 46 16 110 -5 20 -12 49 -14 65 -2 15 -10
61 -18 102 -18 95 -16 58 -22 400 -3 162 -7 322 -9 355 -5 95 -16 328 -21 480
-3 77 -8 181 -10 230 -3 50 -7 300 -9 556 -1 256 -6 471 -10 477 -3 6 -9 80
-11 164 -5 149 -12 269 -20 356 -2 24 -6 102 -9 173 -3 71 -8 134 -11 138 -3
5 -7 53 -10 108 -9 154 -15 245 -19 278 -3 17 -5 62 -6 100 -1 39 -6 89 -11
113 -5 24 -12 100 -14 170 -3 70 -8 150 -10 177 -2 28 -7 124 -10 215 -3 91
-9 226 -14 300 -5 74 -9 142 -10 150 -5 162 -11 282 -15 288 -4 6 -9 54 -21
207 -2 28 -5 50 -6 50 -5 0 -8 91 -10 300 -2 132 -6 254 -11 272 -15 54 -99
99 -113 61z"/>
<path d="M24666 6154 c-26 -26 -18 -62 28 -138 47 -75 104 -194 126 -261 7
-22 18 -46 24 -54 19 -24 15 -223 -7 -320 -11 -47 -25 -89 -31 -93 -6 -4 -8
-8 -4 -8 15 0 -100 -200 -115 -200 -5 0 -6 -4 -3 -8 9 -15 -156 -175 -216
-210 -31 -19 -62 -34 -70 -36 -7 -1 -17 -4 -23 -8 -19 -11 -195 -62 -251 -73
-10 -2 -19 -4 -19 -5 0 -1 -9 -3 -20 -4 -11 -1 -42 -8 -70 -14 -27 -7 -61 -14
-75 -16 -14 -3 -36 -7 -50 -10 -14 -3 -52 -8 -85 -12 -33 -3 -67 -8 -75 -11
-26 -10 -402 -11 -465 -2 -33 5 -177 11 -320 14 -143 3 -307 8 -365 11 -129 7
-310 7 -495 0 -77 -4 -232 -8 -345 -10 -220 -4 -262 -12 -294 -57 -9 -13 -16
-41 -16 -62 0 -35 3 -39 38 -54 36 -15 156 -15 427 2 39 3 117 7 175 10 58 2
148 9 200 14 96 10 636 6 785 -5 117 -9 208 -13 315 -13 52 0 103 0 113 0 116
-2 334 5 397 13 55 6 112 14 160 21 14 2 48 6 75 9 28 4 80 15 117 25 36 11
69 17 72 13 3 -3 6 -1 6 5 0 5 7 10 15 10 17 0 65 20 185 76 104 49 153 82
219 147 49 47 121 136 121 147 0 6 8 17 18 26 32 29 90 159 117 259 34 130 37
145 39 273 3 125 -16 203 -74 310 -18 33 -51 96 -73 139 -52 102 -121 176
-164 176 -18 0 -39 -7 -47 -16z"/>
<path d="M970 6029 c-10 -24 -16 -47 -14 -51 3 -4 0 -8 -6 -8 -14 0 -12 -149
2 -167 5 -7 12 -27 15 -45 3 -17 13 -50 23 -73 10 -22 23 -55 30 -73 20 -52
116 -209 162 -266 67 -81 207 -216 293 -282 126 -95 207 -142 385 -222 70 -31
251 -89 306 -98 60 -9 1301 -10 1362 -1 24 4 47 9 51 12 17 10 18 67 2 86 -14
18 -29 20 -131 19 -659 -3 -1171 -1 -1191 4 -155 43 -318 97 -395 132 -71 32
-199 113 -241 153 -12 12 -25 21 -29 21 -11 0 -231 214 -269 260 -143 177
-192 298 -220 540 -7 62 -33 94 -79 98 -34 3 -38 1 -56 -39z"/>
<path d="M7879 4817 c-2 -3 -102 -7 -223 -11 -120 -3 -222 -9 -227 -12 -5 -3
-87 -7 -182 -10 -94 -2 -185 -7 -202 -10 -16 -3 -246 -8 -510 -10 -357 -4
-483 -8 -492 -17 -7 -7 -15 -26 -18 -44 -4 -27 -1 -35 21 -49 23 -16 65 -17
427 -16 382 1 515 5 687 16 41 3 152 8 245 11 94 3 211 8 260 12 121 9 410 8
570 -2 289 -18 695 -8 721 17 3 4 7 25 7 47 2 74 26 70 -461 71 -241 1 -478 3
-528 6 -50 2 -92 3 -95 1z"/>
<path d="M17874 4768 c-9 -28 -7 -75 6 -97 10 -18 -3 -17 605 -23 182 -2 336
-7 343 -12 6 -4 12 -3 12 1 0 5 46 8 103 6 309 -6 418 -5 432 7 8 7 15 29 15
50 0 40 -18 62 -60 76 -27 8 -550 12 -555 4 -2 -3 -34 -4 -72 -2 -91 5 -419 5
-566 0 -65 -2 -120 -1 -122 2 -2 4 -33 8 -69 9 -59 2 -65 0 -72 -21z"/>
<path d="M19524 4320 c-3 -2 -40 -5 -82 -6 -42 -2 -117 -6 -167 -11 -111 -10
-2495 -9 -2585 2 -137 15 -148 14 -159 -14 -23 -58 -13 -96 26 -106 15 -3 97
-8 182 -10 86 -2 176 -7 201 -10 56 -7 1868 -8 1965 -1 39 3 169 8 290 11 412
11 442 13 497 34 79 30 60 110 -26 112 -23 0 -63 1 -89 2 -27 1 -51 0 -53 -3z"/>
<path d="M22987 4284 c-3 -4 -65 -8 -136 -10 -72 -2 -150 -6 -173 -9 -24 -3
-83 -8 -133 -10 -57 -3 -94 -10 -103 -19 -8 -8 -16 -35 -17 -61 l-3 -47 96 7
c53 3 120 8 147 11 28 2 455 6 950 8 495 3 924 7 955 11 59 7 77 18 80 50 5
46 0 54 -37 64 -40 11 -1616 15 -1626 5z"/>
</g>
</svg>
